<svg width="343" height="56" viewBox="0 0 343 56" fill="none" xmlns="http://www.w3.org/2000/svg">
<path d="M309.714 22.4643H328.286C328.68 22.4643 329 22.1445 329 21.75V19.9643C329 19.5698 328.68 19.25 328.286 19.25H309.714C309.32 19.25 309 19.5698 309 19.9643V21.75C309 22.1445 309.32 22.4643 309.714 22.4643ZM309.714 29.6071H328.286C328.68 29.6071 329 29.2874 329 28.8929V27.1071C329 26.7126 328.68 26.3929 328.286 26.3929H309.714C309.32 26.3929 309 26.7126 309 27.1071V28.8929C309 29.2874 309.32 29.6071 309.714 29.6071ZM309.714 36.75H328.286C328.68 36.75 329 36.4302 329 36.0357V34.25C329 33.8555 328.68 33.5357 328.286 33.5357H309.714C309.32 33.5357 309 33.8555 309 34.25V36.0357C309 36.4302 309.32 36.75 309.714 36.75Z" fill="white"/>
<path d="M272.726 35.2913L268.832 31.3971C268.656 31.2214 268.418 31.1237 268.168 31.1237H267.532C268.61 29.7449 269.25 28.0107 269.25 26.1242C269.25 21.6364 265.614 18 261.126 18C256.638 18 253.002 21.6364 253.002 26.1242C253.002 30.612 256.638 34.2484 261.126 34.2484C263.012 34.2484 264.747 33.6079 266.125 32.5298V33.1665C266.125 33.4165 266.223 33.6547 266.399 33.8305L270.293 37.7246C270.66 38.0918 271.254 38.0918 271.617 37.7246L272.722 36.6193C273.09 36.2521 273.09 35.6584 272.726 35.2913ZM261.126 31.1237C258.364 31.1237 256.126 28.8896 256.126 26.1242C256.126 23.3628 258.361 21.1247 261.126 21.1247C263.887 21.1247 266.125 23.3589 266.125 26.1242C266.125 28.8857 263.891 31.1237 261.126 31.1237Z" fill="white"/>
<path fill-rule="evenodd" clip-rule="evenodd" d="M88.7529 45.0493H141.247C143.311 45.0493 145 43.5706 145 41.7224V14.2858C145 12.4786 143.311 11 141.247 11H88.7529C86.6888 11 85 12.4786 85 14.2858V41.7635C85 43.5706 86.6888 45.0493 88.7529 45.0493ZM96.4376 35.3483V24.3508H94.1977V35.3003H92.6251V37.4134H98.7251C101.013 37.4134 102.728 36.8371 103.777 35.7325C104.825 34.628 105.349 32.8991 105.349 30.4499V25.6474C105.349 23.2462 104.825 21.4693 103.777 20.3647C102.728 19.2602 101.013 18.6839 98.7251 18.6839H92.6251V20.7489H94.1977H96.4376H98.3915C99.2017 20.7489 99.9166 20.845 100.488 20.9891C101.108 21.1331 101.585 21.4213 101.966 21.8055C102.347 22.1897 102.633 22.7179 102.824 23.3423C103.014 24.0146 103.11 24.831 103.11 25.7915V30.3058C103.11 31.3143 103.014 32.1307 102.824 32.755C102.633 33.3793 102.347 33.9076 101.966 34.2918C101.585 34.676 101.06 34.9642 100.488 35.1082C99.9166 35.2523 99.2017 35.3483 98.3915 35.3483H96.4376ZM111.688 35.3484H120.886V37.4135H109.448V18.684H120.695V20.7971H111.64V35.3484H111.688ZM120.552 26.9922V29.0573H114.023V26.9922H120.552ZM129.559 35.3484L126.509 24.1588H124.174L127.939 37.4135H132.228L137.47 18.684H135.087L130.512 35.3484H129.559ZM122.601 18.684L123.459 21.6615H125.794L124.984 18.684H122.601Z" fill="white"/>
<path d="M11.3479 32.6971H3.62824L2.3159 37.3274H0L5.45523 18.7H9.52092L14.9762 37.3274H12.6603L11.3479 32.6971ZM7.33368 19.6579L4.22008 30.6215H10.7561L7.64247 19.6579H7.33368Z" fill="white"/>
<path d="M17.6087 18.7H19.7702V35.2518H29.1882V37.3274H17.6087V18.7Z" fill="white"/>
<path d="M34.9858 18.7V31.0473C34.9858 32.5552 35.3203 33.6995 35.9893 34.4801C36.6755 35.2429 37.6791 35.6243 39 35.6243C40.3209 35.6243 41.3159 35.2429 41.9849 34.4801C42.6711 33.6995 43.0142 32.5552 43.0142 31.0473V18.7H45.1757V31.0473C45.1757 33.2116 44.6268 34.8615 43.5289 35.9969C42.431 37.1323 40.9213 37.7 39 37.7C37.0787 37.7 35.569 37.1323 34.4711 35.9969C33.3732 34.8615 32.8243 33.2116 32.8243 31.0473V18.7H34.9858Z" fill="white"/>
<path d="M60.3913 37.3274H58.2298V31.1005C58.2298 30.6393 58.1269 30.2844 57.921 30.0361C57.7152 29.7877 57.3549 29.6635 56.8403 29.6635H51.2306V37.3274H49.0691V18.7H55.5022C56.4286 18.7 57.2348 18.8419 57.921 19.1257C58.6072 19.3918 59.1733 19.7555 59.6194 20.2168C60.0825 20.678 60.4256 21.2191 60.6486 21.84C60.8888 22.4432 61.0089 23.0818 61.0089 23.756V24.5543C61.0089 25.2462 60.8202 25.938 60.4428 26.6299C60.0825 27.3218 59.5164 27.854 58.7444 28.2266V28.5459C59.2591 28.6346 59.6622 28.8475 59.9539 29.1845C60.2455 29.5216 60.3913 30.0006 60.3913 30.6215V37.3274ZM51.2306 27.5879H55.2449C56.4629 27.5879 57.3635 27.3218 57.9468 26.7896C58.5472 26.2396 58.8474 25.4413 58.8474 24.3946V23.9156C58.8474 22.9754 58.5472 22.2214 57.9468 21.6537C57.3635 21.0683 56.4629 20.7756 55.2449 20.7756H51.2306V27.5879Z" fill="white"/>
<path d="M74.3718 32.6971H66.6521L65.3397 37.3274H63.0238L68.4791 18.7H72.5448L78 37.3274H75.6841L74.3718 32.6971ZM70.3575 19.6579L67.2439 30.6215H73.7799L70.6663 19.6579H70.3575Z" fill="white"/>
</svg>
